<?xml version="1.0" encoding="UTF-8"?><svg xmlns="http://www.w3.org/2000/svg" viewBox="0 0 1200 800"><defs><linearGradient id="sunset" x1="0%" y1="0%" x2="0%" y2="100%"><stop offset="0%" style="stop-color:#FFB74D;stop-opacity:1"/><stop offset="100%" style="stop-color:#FFE0B2;stop-opacity:1"/></linearGradient><filter id="blur" x="-50%" y="-50%" width="200%" height="200%"><feGaussianBlur in="SourceGraphic" stdDeviation="3"/></filter></defs><rect width="100%" height="100%" fill="url(#sunset)"/><g transform="translate(0,600)"><path d="M0,0 C200,-20 400,-40 600,-30 S1000,-10 1200,0" fill="#654321" opacity="0.3"/></g><g transform="translate(100,500)"><path d="M0,0 C10,-5 20,-8 30,-8 S50,-5 60,0 L60,20 C50,25 40,28 30,28 S10,25 0,20 Z" fill="#4A3728" opacity="0.8"/><path d="M100,10 C110,5 120,2 130,2 S150,5 160,10 L160,30 C150,35 140,38 130,38 S110,35 100,30 Z" fill="#4A3728" opacity="0.8"/><path d="M200,5 C210,0 220,-3 230,-3 S250,0 260,5 L260,25 C250,30 240,33 230,33 S210,30 200,25 Z" fill="#4A3728" opacity="0.8"/><path d="M300,15 C310,10 320,7 330,7 S350,10 360,15 L360,35 C350,40 340,43 330,43 S310,40 300,35 Z" fill="#4A3728" opacity="0.8"/><path d="M400,8 C410,3 420,0 430,0 S450,3 460,8 L460,28 C450,33 440,36 430,36 S410,33 400,28 Z" fill="#4A3728" opacity="0.8"/><path d="M500,12 C510,7 520,4 530,4 S550,7 560,12 L560,32 C550,37 540,40 530,40 S510,37 500,32 Z" fill="#4A3728" opacity="0.8"/></g><g transform="translate(0,650)"><rect width="1200" height="150" fill="#654321"/></g><g filter="url(#blur)"><circle cx="1000" cy="100" r="60" fill="#FFB74D" opacity="0.8"/></g></svg>